<svg width="33" height="33" viewBox="0 0 33 33" fill="none" xmlns="http://www.w3.org/2000/svg">
<path d="M29.574 13.8887H28.5V13.8334H16.5V19.1667H24.0354C22.936 22.2714 19.982 24.5 16.5 24.5C12.082 24.5 8.50002 20.918 8.50002 16.5C8.50002 12.082 12.082 8.50002 16.5 8.50002C18.5394 8.50002 20.3947 9.26935 21.8074 10.526L25.5787 6.75469C23.1974 4.53535 20.012 3.16669 16.5 3.16669C9.13669 3.16669 3.16669 9.13669 3.16669 16.5C3.16669 23.8634 9.13669 29.8334 16.5 29.8334C23.8634 29.8334 29.8334 23.8634 29.8334 16.5C29.8334 15.606 29.7414 14.7334 29.574 13.8887Z" fill="#FFC107"/>
<path d="M4.70398 10.294L9.08465 13.5067C10.27 10.572 13.1406 8.50002 16.5 8.50002C18.5393 8.50002 20.3946 9.26935 21.8073 10.526L25.5786 6.75469C23.1973 4.53535 20.012 3.16669 16.5 3.16669C11.3786 3.16669 6.93731 6.05802 4.70398 10.294Z" fill="#FF3D00"/>
<path d="M16.5 29.8333C19.944 29.8333 23.0733 28.5153 25.4393 26.372L21.3127 22.88C19.929 23.9322 18.2383 24.5013 16.5 24.5C13.032 24.5 10.0873 22.2886 8.978 19.2026L4.63 22.5526C6.83667 26.8706 11.318 29.8333 16.5 29.8333Z" fill="#4CAF50"/>
<path d="M29.574 13.8886H28.5V13.8333H16.5V19.1666H24.0353C23.5095 20.6443 22.5622 21.9354 21.3107 22.8806L21.3127 22.8793L25.4393 26.3713C25.1473 26.6366 29.8333 23.1666 29.8333 16.5C29.8333 15.606 29.7413 14.7333 29.574 13.8886Z" fill="#1976D2"/>
</svg>
