<svg width="18" height="18" viewBox="0 0 18 18" fill="none" xmlns="http://www.w3.org/2000/svg">
<path d="M5.1795 3.40277C5.11118 3.36226 5.03335 3.34055 4.95393 3.33986C4.87451 3.33917 4.79631 3.35951 4.7273 3.39882C4.65828 3.43812 4.60089 3.495 4.56097 3.56367C4.52105 3.63233 4.50001 3.71034 4.5 3.78977V14.2103C4.50001 14.2897 4.52105 14.3677 4.56097 14.4364C4.60089 14.505 4.65828 14.5619 4.7273 14.6012C4.79631 14.6405 4.87451 14.6609 4.95393 14.6602C5.03335 14.6595 5.11118 14.6378 5.1795 14.5973L13.9718 9.38702C14.0389 9.34717 14.0945 9.29054 14.1332 9.22269C14.1718 9.15484 14.1921 9.0781 14.1921 9.00002C14.1921 8.92193 14.1718 8.8452 14.1332 8.77734C14.0945 8.70949 14.0389 8.65286 13.9718 8.61302L5.1795 3.40277Z" fill="#8338EC" stroke="#8338EC" stroke-width="1.5" stroke-linecap="round" stroke-linejoin="round"/>
</svg>
