<svg width="18" height="18" viewBox="0 0 18 18" fill="none" xmlns="http://www.w3.org/2000/svg">
<path d="M15.1875 2.25V13.5C15.1875 13.6492 15.1282 13.7923 15.0227 13.8977C14.9173 14.0032 14.7742 14.0625 14.625 14.0625H5.0625C4.76413 14.0625 4.47798 14.181 4.267 14.392C4.05603 14.603 3.9375 14.8891 3.9375 15.1875H13.5C13.6492 15.1875 13.7923 15.2468 13.8977 15.3523C14.0032 15.4577 14.0625 15.6008 14.0625 15.75C14.0625 15.8992 14.0032 16.0423 13.8977 16.1477C13.7923 16.2532 13.6492 16.3125 13.5 16.3125H3.375C3.22582 16.3125 3.08274 16.2532 2.97725 16.1477C2.87176 16.0423 2.8125 15.8992 2.8125 15.75V3.9375C2.8125 3.34076 3.04955 2.76847 3.47151 2.34651C3.89347 1.92455 4.46576 1.6875 5.0625 1.6875H14.625C14.7742 1.6875 14.9173 1.74676 15.0227 1.85225C15.1282 1.95774 15.1875 2.10082 15.1875 2.25Z" fill="#8338EC"/>
</svg>
