<svg width="24" height="17" viewBox="0 0 24 17" fill="none" xmlns="http://www.w3.org/2000/svg">
<path d="M23.5313 8.04344C23.4966 7.9675 22.6753 6.14406 20.8613 4.33C18.4341 1.90656 15.375 0.625 12 0.625C8.625 0.625 5.56594 1.90656 3.14156 4.33C1.3275 6.14406 0.506252 7.9675 0.468752 8.04344C0.405239 8.18743 0.372437 8.34309 0.372437 8.50047C0.372437 8.65785 0.405239 8.8135 0.468752 8.9575C0.503439 9.03438 1.32469 10.8569 3.13969 12.6709C5.56594 15.0944 8.625 16.375 12 16.375C15.375 16.375 18.4341 15.0944 20.8575 12.6709C22.6725 10.8569 23.4938 9.03438 23.5284 8.9575C23.5924 8.8137 23.6257 8.65815 23.6262 8.50077C23.6266 8.34338 23.5943 8.18763 23.5313 8.04344ZM19.2131 11.1372C17.2003 13.1191 14.7741 14.125 12 14.125C9.22594 14.125 6.79969 13.1191 4.78969 11.1362C3.99876 10.3537 3.31841 9.46671 2.7675 8.5C3.31857 7.53368 3.99891 6.64707 4.78969 5.86469C6.80063 3.88094 9.22594 2.875 12 2.875C14.7741 2.875 17.1994 3.88094 19.2103 5.86469C20.0012 6.647 20.6815 7.53362 21.2325 8.5C20.6815 9.46665 20.0012 10.3536 19.2103 11.1362L19.2131 11.1372ZM12 4.375C11.1842 4.375 10.3866 4.61693 9.70827 5.07019C9.02992 5.52345 8.50121 6.16769 8.189 6.92143C7.87679 7.67518 7.7951 8.50458 7.95426 9.30475C8.11343 10.1049 8.5063 10.8399 9.08319 11.4168C9.66008 11.9937 10.3951 12.3866 11.1953 12.5457C11.9954 12.7049 12.8248 12.6232 13.5786 12.311C14.3323 11.9988 14.9766 11.4701 15.4298 10.7917C15.8831 10.1134 16.125 9.31585 16.125 8.5C16.1238 7.40636 15.6888 6.35787 14.9154 5.58455C14.1421 4.81124 13.0936 4.37624 12 4.375ZM12 10.375C11.6292 10.375 11.2667 10.265 10.9583 10.059C10.65 9.85298 10.4096 9.56014 10.2677 9.21753C10.1258 8.87492 10.0887 8.49792 10.161 8.13421C10.2334 7.77049 10.412 7.4364 10.6742 7.17417C10.9364 6.91195 11.2705 6.73337 11.6342 6.66103C11.9979 6.58868 12.3749 6.62581 12.7175 6.76773C13.0601 6.90964 13.353 7.14996 13.559 7.45831C13.765 7.76665 13.875 8.12916 13.875 8.5C13.875 8.99728 13.6775 9.47419 13.3258 9.82582C12.9742 10.1775 12.4973 10.375 12 10.375Z" fill="#121212" fill-opacity="0.6"/>
</svg>
